<svg width="109" height="52" viewBox="0 0 109 52" fill="none" xmlns="http://www.w3.org/2000/svg">
<path d="M105.305 31.2324C103.406 31.2324 101.852 32.6926 101.852 34.4774C101.852 36.2621 103.406 37.7223 105.305 37.7223C107.204 37.7223 108.758 36.2621 108.758 34.4774C108.758 32.6926 107.204 31.2324 105.305 31.2324ZM105.305 37.0733C103.751 37.0733 102.543 35.8564 102.543 34.4774C102.543 33.0171 103.838 31.8814 105.305 31.8814C106.859 31.8814 108.067 33.0983 108.067 34.4774C108.154 35.8564 106.859 37.0733 105.305 37.0733Z" fill="white"/>
<path d="M104.701 34.1528H105.133C105.392 34.1528 105.564 34.1528 105.651 34.1528C105.737 34.1528 105.737 34.0717 105.823 34.0717C105.909 33.9906 105.909 33.9094 105.909 33.8283C105.909 33.7472 105.909 33.6661 105.823 33.585C105.737 33.5038 105.651 33.5038 105.564 33.5038C105.478 33.5038 105.392 33.5038 105.133 33.5038H104.615V34.1528H104.701ZM104.097 35.8564V33.0171H105.392C105.737 33.0171 105.909 33.0171 106.082 33.0982C106.255 33.1793 106.341 33.2605 106.427 33.3416C106.514 33.5038 106.6 33.585 106.6 33.8283C106.6 34.0717 106.514 34.2339 106.427 34.3962C106.255 34.5584 106.082 34.6396 105.823 34.6396C105.909 34.7207 106.082 34.8018 106.168 34.8829C106.255 34.964 106.341 35.1263 106.514 35.3697L106.859 35.9375H106.168L105.737 35.2885C105.564 35.0452 105.478 34.964 105.392 34.8829C105.305 34.8018 105.305 34.8018 105.219 34.8018C105.133 34.8018 105.046 34.8018 104.874 34.8018H104.787V36.0187L104.097 35.8564Z" fill="white"/>
<path d="M74.1424 0.243408C74.9193 0.243408 75.6099 0.811271 75.6099 1.6225C75.6099 2.35261 75.0057 3.0016 74.1424 3.0016C73.3655 2.92048 72.7612 2.35261 72.7612 1.54138C72.7612 0.811271 73.3655 0.243408 74.1424 0.243408Z" fill="white"/>
<path d="M73.8835 27.7441C74.6604 27.7441 75.351 28.312 75.351 29.1232C75.351 29.8533 74.7468 30.5023 73.8835 30.5023C73.1066 30.5023 72.416 29.9345 72.416 29.1232C72.5023 28.312 73.1066 27.7441 73.8835 27.7441Z" fill="white"/>
<path d="M77.1633 20.8488C77.9402 20.8488 78.6308 21.4977 78.6308 22.2279C78.6308 22.958 78.0266 23.6069 77.1633 23.6069C76.3864 23.6069 75.6958 22.958 75.6958 22.2279C75.7821 21.4977 76.3864 20.8488 77.1633 20.8488Z" fill="white"/>
<path d="M76.2141 24.2559C76.991 24.2559 77.6816 24.8237 77.6816 25.635C77.6816 26.3651 77.0773 27.0141 76.2141 27.0141C75.4372 27.0141 74.7466 26.3651 74.7466 25.635C74.7466 24.9048 75.3509 24.2559 76.2141 24.2559Z" fill="white"/>
<path d="M74.3147 13.9532C75.0916 13.9532 75.7822 14.5211 75.7822 15.3323C75.7822 16.0625 75.1779 16.7114 74.3147 16.7114C73.5378 16.7114 72.8472 16.1436 72.8472 15.3323C72.9335 14.6022 73.5378 13.9532 74.3147 13.9532Z" fill="white"/>
<path d="M76.5593 17.4415C77.3362 17.4415 78.0268 18.0905 78.0268 18.8206C78.0268 19.5507 77.4225 20.1997 76.5593 20.1997C75.7824 20.1997 75.0918 19.6319 75.0918 18.8206C75.0918 18.0094 75.6961 17.4415 76.5593 17.4415Z" fill="white"/>
<path d="M71.2073 7.13892C71.9842 7.13892 72.6748 7.70678 72.6748 8.51801C72.6748 9.24812 72.0705 9.89711 71.2073 9.89711C70.4303 9.89711 69.7397 9.32924 69.7397 8.51801C69.7397 7.70678 70.4303 7.13892 71.2073 7.13892Z" fill="white"/>
<path d="M72.0705 3.65063C72.8475 3.65063 73.538 4.2185 73.538 5.02973C73.538 5.75984 72.9338 6.40883 72.0705 6.40883C71.2936 6.40883 70.603 5.84096 70.603 5.02973C70.6894 4.29962 71.2936 3.65063 72.0705 3.65063Z" fill="white"/>
<path d="M71.7253 10.546C72.5022 10.546 73.1928 11.1139 73.1928 11.9251C73.1928 12.6552 72.5886 13.3042 71.7253 13.3042C70.9484 13.3042 70.2578 12.6552 70.2578 11.9251C70.3441 11.195 70.9484 10.546 71.7253 10.546Z" fill="white"/>
<path d="M68.272 1.5414C68.272 2.43375 69.0489 3.16386 69.9121 3.16386C70.7754 3.16386 71.5523 2.43375 71.5523 1.62252C71.5523 0.730163 70.7754 0.0811768 69.9121 0.0811768C69.0489 0.0811768 68.272 0.730163 68.272 1.5414ZM68.7036 1.5414C68.7036 0.892409 69.2215 0.40567 69.9121 0.40567C70.6027 0.40567 71.1207 0.892409 71.1207 1.5414C71.1207 2.19038 70.6027 2.67712 69.9121 2.67712C69.2215 2.75824 68.7036 2.19038 68.7036 1.5414Z" fill="white"/>
<path d="M68.0132 29.1232C68.0132 30.0156 68.7901 30.6645 69.6533 30.6645C70.6029 30.6645 71.2935 29.9344 71.2935 29.1232C71.2935 28.2308 70.5166 27.5819 69.6533 27.5819C68.7901 27.5007 68.0132 28.2308 68.0132 29.1232ZM68.4448 29.1232C68.4448 28.4742 68.9627 27.9875 69.6533 27.9875C70.3439 27.9875 70.8619 28.4742 70.8619 29.1232C70.8619 29.7722 70.3439 30.2589 69.6533 30.2589C68.9627 30.2589 68.4448 29.6911 68.4448 29.1232Z" fill="white"/>
<path d="M76.4727 29.1232C76.4727 30.0156 77.2496 30.6645 78.1128 30.6645C79.0624 30.6645 79.753 29.9344 79.753 29.1232C79.753 28.2308 78.9761 27.5819 78.1128 27.5819C77.2496 27.5007 76.4727 28.2308 76.4727 29.1232ZM76.9043 29.1232C76.9043 28.4742 77.4222 27.9875 78.1128 27.9875C78.8034 27.9875 79.3214 28.4742 79.3214 29.1232C79.3214 29.7722 78.8034 30.2589 78.1128 30.2589C77.5085 30.2589 76.9043 29.6911 76.9043 29.1232Z" fill="white"/>
<path d="M76.7314 1.54134C76.7314 2.4337 77.5084 3.08268 78.3716 3.08268C79.3212 3.08268 80.0118 2.35257 80.0118 1.54134C80.0118 0.648986 79.2348 0 78.3716 0C77.5084 0 76.7314 0.730109 76.7314 1.54134ZM77.1631 1.54134C77.1631 0.892356 77.681 0.405616 78.3716 0.405616C79.0622 0.405616 79.5801 0.892356 79.5801 1.54134C79.5801 2.19033 79.0622 2.67707 78.3716 2.67707C77.7673 2.75819 77.1631 2.19033 77.1631 1.54134Z" fill="white"/>
<path d="M58.6035 22.2277C58.6035 23.1201 59.3804 23.7691 60.2437 23.7691C61.1932 23.7691 61.8838 23.039 61.8838 22.2277C61.8838 21.3354 61.1069 20.6864 60.2437 20.6864C59.2941 20.6864 58.6035 21.3354 58.6035 22.2277ZM59.0351 22.2277C59.0351 21.5788 59.5531 21.092 60.2437 21.092C60.9343 21.092 61.4522 21.5788 61.4522 22.2277C61.4522 22.8767 60.9343 23.3635 60.2437 23.3635C59.5531 23.3635 59.0351 22.8767 59.0351 22.2277Z" fill="white"/>
<path d="M62.8335 22.2277C62.8335 23.1201 63.6104 23.7691 64.4736 23.7691C65.4232 23.7691 66.1138 23.039 66.1138 22.2277C66.1138 21.3354 65.3369 20.6864 64.4736 20.6864C63.5241 20.6864 62.8335 21.3354 62.8335 22.2277ZM63.2651 22.2277C63.2651 21.5788 63.7831 21.092 64.4736 21.092C65.1642 21.092 65.6822 21.5788 65.6822 22.2277C65.6822 22.8767 65.1642 23.3635 64.4736 23.3635C63.7831 23.3635 63.2651 22.8767 63.2651 22.2277Z" fill="white"/>
<path d="M67.0635 22.2277C67.0635 23.1201 67.8404 23.7691 68.7036 23.7691C69.6532 23.7691 70.3438 23.039 70.3438 22.2277C70.3438 21.3354 69.5669 20.6864 68.7036 20.6864C67.8404 20.6864 67.0635 21.3354 67.0635 22.2277ZM67.4951 22.2277C67.4951 21.5788 68.013 21.092 68.7036 21.092C69.3942 21.092 69.9122 21.5788 69.9122 22.2277C69.9122 22.8767 69.3942 23.3635 68.7036 23.3635C68.013 23.3635 67.4951 22.8767 67.4951 22.2277Z" fill="white"/>
<path d="M71.2935 22.2277C71.2935 23.1201 72.0704 23.7691 72.9336 23.7691C73.8832 23.7691 74.5738 23.039 74.5738 22.2277C74.5738 21.3354 73.7969 20.6864 72.9336 20.6864C72.0704 20.6864 71.2935 21.3354 71.2935 22.2277ZM71.7251 22.2277C71.7251 21.5788 72.243 21.092 72.9336 21.092C73.6242 21.092 74.1422 21.5788 74.1422 22.2277C74.1422 22.8767 73.6242 23.3635 72.9336 23.3635C72.243 23.3635 71.7251 22.8767 71.7251 22.2277Z" fill="white"/>
<path d="M79.7529 22.2277C79.7529 23.1201 80.5298 23.7691 81.3931 23.7691C82.3427 23.7691 83.0332 23.039 83.0332 22.2277C83.0332 21.3354 82.2563 20.6864 81.3931 20.6864C80.5298 20.6864 79.7529 21.3354 79.7529 22.2277ZM80.1846 22.2277C80.1846 21.5788 80.7025 21.092 81.3931 21.092C82.0837 21.092 82.6016 21.5788 82.6016 22.2277C82.6016 22.8767 82.0837 23.3635 81.3931 23.3635C80.7888 23.3635 80.1846 22.8767 80.1846 22.2277Z" fill="white"/>
<path d="M83.9829 22.2277C83.9829 23.1201 84.7598 23.7691 85.6231 23.7691C86.5726 23.7691 87.2632 23.039 87.2632 22.2277C87.2632 21.3354 86.4863 20.6864 85.6231 20.6864C84.7598 20.6864 83.9829 21.3354 83.9829 22.2277ZM84.4145 22.2277C84.4145 21.5788 84.9325 21.092 85.6231 21.092C86.3137 21.092 86.8316 21.5788 86.8316 22.2277C86.8316 22.8767 86.3137 23.3635 85.6231 23.3635C85.0188 23.3635 84.4145 22.8767 84.4145 22.2277Z" fill="white"/>
<path d="M61.7979 25.635C61.7979 26.5273 62.5748 27.1763 63.438 27.1763C64.3876 27.1763 65.0782 26.4462 65.0782 25.635C65.0782 24.7426 64.3013 24.0936 63.438 24.0936C62.5748 24.0936 61.7979 24.8237 61.7979 25.635ZM62.2295 25.635C62.2295 24.986 62.7474 24.4992 63.438 24.4992C64.1286 24.4992 64.6466 24.986 64.6466 25.635C64.6466 26.284 64.1286 26.7707 63.438 26.7707C62.8337 26.8518 62.2295 26.284 62.2295 25.635Z" fill="white"/>
<path d="M66.0278 25.635C66.0278 26.5273 66.8048 27.1763 67.668 27.1763C68.6176 27.1763 69.3082 26.4462 69.3082 25.635C69.3082 24.7426 68.5312 24.0936 67.668 24.0936C66.8048 24.0936 66.0278 24.8237 66.0278 25.635ZM66.4595 25.635C66.4595 24.986 66.9774 24.4992 67.668 24.4992C68.3586 24.4992 68.8765 24.986 68.8765 25.635C68.8765 26.284 68.3586 26.7707 67.668 26.7707C67.0637 26.8518 66.4595 26.284 66.4595 25.635Z" fill="white"/>
<path d="M70.2573 25.635C70.2573 26.5273 71.0342 27.1763 71.8975 27.1763C72.847 27.1763 73.5376 26.4462 73.5376 25.635C73.5376 24.7426 72.7607 24.0936 71.8975 24.0936C71.0342 24.0936 70.2573 24.8237 70.2573 25.635ZM70.6889 25.635C70.6889 24.986 71.2069 24.4992 71.8975 24.4992C72.5881 24.4992 73.106 24.986 73.106 25.635C73.106 26.284 72.5881 26.7707 71.8975 26.7707C71.2932 26.8518 70.6889 26.284 70.6889 25.635Z" fill="white"/>
<path d="M78.8032 25.635C78.8032 26.5273 79.5801 27.1763 80.4434 27.1763C81.3929 27.1763 82.0835 26.4462 82.0835 25.635C82.0835 24.7426 81.3066 24.0936 80.4434 24.0936C79.4938 24.0936 78.8032 24.8237 78.8032 25.635ZM79.2348 25.635C79.2348 24.986 79.7528 24.4992 80.4434 24.4992C81.134 24.4992 81.6519 24.986 81.6519 25.635C81.6519 26.284 81.134 26.7707 80.4434 26.7707C79.7528 26.8518 79.2348 26.284 79.2348 25.635Z" fill="white"/>
<path d="M83.0332 25.635C83.0332 26.5273 83.8101 27.1763 84.6734 27.1763C85.6229 27.1763 86.3135 26.4462 86.3135 25.635C86.3135 24.7426 85.5366 24.0936 84.6734 24.0936C83.7238 24.0936 83.0332 24.8237 83.0332 25.635ZM83.4648 25.635C83.4648 24.986 83.9828 24.4992 84.6734 24.4992C85.364 24.4992 85.8819 24.986 85.8819 25.635C85.8819 26.284 85.364 26.7707 84.6734 26.7707C83.9828 26.8518 83.4648 26.284 83.4648 25.635Z" fill="white"/>
<path d="M59.9849 15.3324C59.9849 16.2247 60.7618 16.8737 61.625 16.8737C62.5746 16.8737 63.2652 16.1436 63.2652 15.3324C63.2652 14.44 62.4883 13.791 61.625 13.791C60.6755 13.791 59.9849 14.5211 59.9849 15.3324ZM60.4165 15.3324C60.4165 14.6834 60.9344 14.1966 61.625 14.1966C62.3156 14.1966 62.8336 14.6834 62.8336 15.3324C62.8336 15.9813 62.3156 16.4681 61.625 16.4681C60.9344 16.4681 60.4165 15.9813 60.4165 15.3324Z" fill="white"/>
<path d="M64.2144 15.3324C64.2144 16.2247 64.9913 16.8737 65.8545 16.8737C66.8041 16.8737 67.4947 16.1436 67.4947 15.3324C67.4947 14.44 66.7178 13.791 65.8545 13.791C64.9913 13.791 64.2144 14.5211 64.2144 15.3324ZM64.646 15.3324C64.646 14.6834 65.1639 14.1966 65.8545 14.1966C66.5451 14.1966 67.063 14.6834 67.063 15.3324C67.063 15.9813 66.5451 16.4681 65.8545 16.4681C65.1639 16.4681 64.646 15.9813 64.646 15.3324Z" fill="white"/>
<path d="M68.4448 15.3324C68.4448 16.2247 69.2217 16.8737 70.085 16.8737C71.0345 16.8737 71.7251 16.1436 71.7251 15.3324C71.7251 14.44 70.9482 13.791 70.085 13.791C69.2217 13.791 68.4448 14.5211 68.4448 15.3324ZM68.8764 15.3324C68.8764 14.6834 69.3944 14.1966 70.085 14.1966C70.7756 14.1966 71.2935 14.6834 71.2935 15.3324C71.2935 15.9813 70.7756 16.4681 70.085 16.4681C69.3944 16.4681 68.8764 15.9813 68.8764 15.3324Z" fill="white"/>
<path d="M76.9043 15.3324C76.9043 16.2247 77.6812 16.8737 78.5445 16.8737C79.494 16.8737 80.1846 16.1436 80.1846 15.3324C80.1846 14.44 79.4077 13.791 78.5445 13.791C77.6812 13.791 76.9043 14.5211 76.9043 15.3324ZM77.3359 15.3324C77.3359 14.6834 77.8539 14.1966 78.5445 14.1966C79.235 14.1966 79.753 14.6834 79.753 15.3324C79.753 15.9813 79.235 16.4681 78.5445 16.4681C77.8539 16.4681 77.3359 15.9813 77.3359 15.3324Z" fill="white"/>
<path d="M81.1343 15.3324C81.1343 16.2247 81.9112 16.8737 82.7744 16.8737C83.724 16.8737 84.4146 16.1436 84.4146 15.3324C84.4146 14.44 83.6377 13.791 82.7744 13.791C81.9112 13.791 81.1343 14.5211 81.1343 15.3324ZM81.5659 15.3324C81.5659 14.6834 82.0838 14.1966 82.7744 14.1966C83.465 14.1966 83.983 14.6834 83.983 15.3324C83.983 15.9813 83.465 16.4681 82.7744 16.4681C82.1702 16.4681 81.5659 15.9813 81.5659 15.3324Z" fill="white"/>
<path d="M85.3638 15.3324C85.3638 16.2247 86.1407 16.8737 87.0039 16.8737C87.9535 16.8737 88.6441 16.1436 88.6441 15.3324C88.6441 14.44 87.8672 13.791 87.0039 13.791C86.1407 13.791 85.3638 14.5211 85.3638 15.3324ZM85.7954 15.3324C85.7954 14.6834 86.3133 14.1966 87.0039 14.1966C87.6945 14.1966 88.2125 14.6834 88.2125 15.3324C88.2125 15.9813 87.6945 16.4681 87.0039 16.4681C86.3997 16.4681 85.7954 15.9813 85.7954 15.3324Z" fill="white"/>
<path d="M58.431 17.6849C58.0857 18.0094 57.9131 18.3338 57.9131 18.8206C57.9131 19.7129 58.69 20.3619 59.5532 20.3619C60.5028 20.3619 61.1934 19.6318 61.1934 18.8206C61.1934 18.415 61.0208 18.0094 60.6755 17.6849C60.3302 17.3604 59.9849 17.1981 59.4669 17.1981C59.1216 17.1981 58.69 17.3604 58.431 17.6849ZM58.3447 18.7395C58.3447 18.415 58.431 18.1716 58.69 17.9282C58.949 17.6849 59.2079 17.6037 59.5532 17.6037C59.8985 17.6037 60.1575 17.6849 60.4165 17.9282C60.6755 18.1716 60.7618 18.415 60.7618 18.7395C60.7618 19.3884 60.2438 19.8752 59.5532 19.8752C58.8627 19.9563 58.3447 19.3884 58.3447 18.7395Z" fill="white"/>
<path d="M62.661 17.6849C62.3157 18.0094 62.1431 18.3338 62.1431 18.8206C62.1431 19.7129 62.92 20.3619 63.7832 20.3619C64.7328 20.3619 65.4234 19.6318 65.4234 18.8206C65.4234 18.415 65.2507 18.0094 64.9054 17.6849C64.5601 17.3604 64.2148 17.1981 63.6969 17.1981C63.3516 17.1981 62.92 17.3604 62.661 17.6849ZM62.5747 18.7395C62.5747 18.415 62.661 18.1716 62.92 17.9282C63.179 17.6849 63.4379 17.6037 63.7832 17.6037C64.1285 17.6037 64.3875 17.6849 64.6465 17.9282C64.9054 18.1716 64.9918 18.415 64.9918 18.7395C64.9918 19.3884 64.4738 19.8752 63.7832 19.8752C63.179 19.9563 62.5747 19.3884 62.5747 18.7395Z" fill="white"/>
<path d="M66.8905 17.6848C66.5452 18.0093 66.3726 18.3338 66.3726 18.8206C66.3726 19.7129 67.1495 20.3619 68.0127 20.3619C68.9623 20.3619 69.6529 19.6318 69.6529 18.8206C69.6529 17.9282 68.876 17.2792 68.0127 17.2792C67.5811 17.1981 67.2358 17.3603 66.8905 17.6848ZM66.8042 18.7394C66.8042 18.4149 66.8905 18.1716 67.1495 17.9282C67.4084 17.6848 67.6674 17.6037 68.0127 17.6037C68.7033 17.6037 69.2213 18.0905 69.2213 18.7394C69.2213 19.3884 68.7033 19.8752 68.0127 19.8752C67.4084 19.9563 66.8042 19.3884 66.8042 18.7394Z" fill="white"/>
<path d="M71.121 17.6849C70.7757 18.0094 70.603 18.3338 70.603 18.8206C70.603 19.7129 71.3799 20.3619 72.2432 20.3619C73.1927 20.3619 73.8833 19.6318 73.8833 18.8206C73.8833 18.415 73.7107 18.0094 73.3654 17.6849C73.0201 17.3604 72.6748 17.1981 72.1569 17.1981C71.8116 17.1981 71.4663 17.3604 71.121 17.6849ZM71.0346 18.7395C71.0346 18.415 71.121 18.1716 71.3799 17.9282C71.6389 17.6849 71.8979 17.6037 72.2432 17.6037C72.5885 17.6037 72.8474 17.6849 73.1064 17.9282C73.3654 18.1716 73.4517 18.415 73.4517 18.7395C73.4517 19.3884 72.9338 19.8752 72.2432 19.8752C71.6389 19.9563 71.0346 19.3884 71.0346 18.7395Z" fill="white"/>
<path d="M79.5804 17.6849C79.2351 18.0094 79.0625 18.3338 79.0625 18.8206C79.0625 19.7129 79.8394 20.3619 80.7027 20.3619C81.5659 20.3619 82.3428 19.6318 82.3428 18.8206C82.3428 18.415 82.1702 18.0094 81.8249 17.6849C81.4796 17.3604 81.1343 17.1981 80.6163 17.1981C80.3574 17.1981 79.9257 17.3604 79.5804 17.6849ZM79.5804 18.7395C79.5804 18.415 79.6668 18.1716 79.9257 17.9282C80.1847 17.6849 80.4437 17.6037 80.789 17.6037C81.1343 17.6037 81.3933 17.6849 81.6522 17.9282C81.9112 18.1716 81.9975 18.415 81.9975 18.7395C81.9975 19.3884 81.4796 19.8752 80.789 19.8752C80.0984 19.9563 79.5804 19.3884 79.5804 18.7395Z" fill="white"/>
<path d="M83.8104 17.6849C83.4651 18.0094 83.2925 18.3338 83.2925 18.8206C83.2925 19.7129 84.0694 20.3619 84.9326 20.3619C85.8822 20.3619 86.5728 19.6318 86.5728 18.8206C86.5728 18.415 86.4001 18.0094 86.0549 17.6849C85.7096 17.3604 85.3643 17.1981 84.8463 17.1981C84.5873 17.1981 84.1557 17.3604 83.8104 17.6849ZM83.8104 18.7395C83.8104 18.415 83.8967 18.1716 84.1557 17.9282C84.4147 17.6849 84.6737 17.6037 85.019 17.6037C85.3643 17.6037 85.6232 17.6849 85.8822 17.9282C86.1412 18.1716 86.2275 18.415 86.2275 18.7395C86.2275 19.3884 85.7096 19.8752 85.019 19.8752C84.3284 19.9563 83.8104 19.3884 83.8104 18.7395Z" fill="white"/>
<path d="M88.0399 17.6849C87.6946 18.0094 87.522 18.3338 87.522 18.8206C87.522 19.7129 88.2989 20.3619 89.1621 20.3619C90.1117 20.3619 90.8023 19.6318 90.8023 18.8206C90.8023 18.415 90.6296 18.0094 90.2843 17.6849C89.939 17.3604 89.5937 17.1981 89.0758 17.1981C88.8168 17.1981 88.3852 17.3604 88.0399 17.6849ZM88.0399 18.7395C88.0399 18.415 88.1262 18.1716 88.3852 17.9282C88.6442 17.6849 88.9032 17.6037 89.2485 17.6037C89.5938 17.6037 89.8527 17.6849 90.1117 17.9282C90.3707 18.1716 90.457 18.415 90.457 18.7395C90.457 19.3884 89.939 19.8752 89.2485 19.8752C88.5579 19.9563 88.0399 19.3884 88.0399 18.7395Z" fill="white"/>
<path d="M61.5385 7.38222C61.1932 7.70671 61.0205 8.03121 61.0205 8.51795C61.0205 9.4103 61.7974 10.0593 62.6607 10.0593C63.6102 10.0593 64.3008 9.32918 64.3008 8.51795C64.3008 7.62559 63.5239 6.97661 62.6607 6.97661C62.3154 6.89548 61.8838 7.05773 61.5385 7.38222ZM61.4521 8.43682C61.4521 8.11233 61.5385 7.86896 61.7974 7.62559C62.0564 7.38222 62.3154 7.3011 62.6607 7.3011C63.3513 7.3011 63.8692 7.78784 63.8692 8.43682C63.8692 9.08581 63.3513 9.57255 62.6607 9.57255C62.0564 9.65367 61.4521 9.08581 61.4521 8.43682Z" fill="white"/>
<path d="M65.7684 7.38222C65.4231 7.70671 65.2505 8.03121 65.2505 8.51795C65.2505 9.4103 66.0274 10.0593 66.8906 10.0593C67.8402 10.0593 68.5308 9.32918 68.5308 8.51795C68.5308 7.62559 67.7539 6.97661 66.8906 6.97661C66.5454 6.89548 66.1137 7.05773 65.7684 7.38222ZM65.7684 8.43682C65.7684 8.11233 65.8548 7.86896 66.1137 7.62559C66.3727 7.38222 66.6317 7.3011 66.977 7.3011C67.6676 7.3011 68.1855 7.78784 68.1855 8.43682C68.1855 9.08581 67.6676 9.57255 66.977 9.57255C66.2864 9.65367 65.7684 9.08581 65.7684 8.43682Z" fill="white"/>
<path d="M73.7969 8.43685C73.7969 9.32921 74.5738 9.97819 75.437 9.97819C76.3866 9.97819 77.0772 9.24808 77.0772 8.43685C77.0772 7.54449 76.3003 6.89551 75.437 6.89551C74.4875 6.89551 73.7969 7.62562 73.7969 8.43685ZM74.2285 8.43685C74.2285 7.78786 74.7464 7.30112 75.437 7.30112C76.1276 7.30112 76.6456 7.78786 76.6456 8.43685C76.6456 9.08584 76.1276 9.57257 75.437 9.57257C74.7464 9.6537 74.2285 9.08584 74.2285 8.43685Z" fill="white"/>
<path d="M78.0264 8.43685C78.0264 9.32921 78.8033 9.97819 79.6665 9.97819C80.6161 9.97819 81.3067 9.24808 81.3067 8.43685C81.3067 7.54449 80.5298 6.89551 79.6665 6.89551C78.8033 6.89551 78.0264 7.62562 78.0264 8.43685ZM78.458 8.43685C78.458 7.78786 78.9759 7.30112 79.6665 7.30112C80.3571 7.30112 80.8751 7.78786 80.8751 8.43685C80.8751 9.08584 80.3571 9.57257 79.6665 9.57257C78.9759 9.6537 78.458 9.08584 78.458 8.43685Z" fill="white"/>
<path d="M82.2563 8.43685C82.2563 9.32921 83.0333 9.97819 83.8965 9.97819C84.8461 9.97819 85.5367 9.24808 85.5367 8.43685C85.5367 7.54449 84.7597 6.89551 83.8965 6.89551C83.0333 6.89551 82.2563 7.62562 82.2563 8.43685ZM82.688 8.43685C82.688 7.78786 83.2059 7.30112 83.8965 7.30112C84.5871 7.30112 85.105 7.78786 85.105 8.43685C85.105 9.08584 84.5871 9.57257 83.8965 9.57257C83.2059 9.6537 82.688 9.08584 82.688 8.43685Z" fill="white"/>
<path d="M61.9702 5.02962C61.9702 5.92198 62.7471 6.57096 63.6104 6.57096C64.5599 6.57096 65.2505 5.84086 65.2505 5.02962C65.2505 4.13727 64.4736 3.48828 63.6104 3.48828C62.7471 3.48828 61.9702 4.13727 61.9702 5.02962ZM62.4018 5.02962C62.4018 4.38064 62.9198 3.8939 63.6104 3.8939C64.301 3.8939 64.8189 4.38064 64.8189 5.02962C64.8189 5.67861 64.301 6.16535 63.6104 6.16535C62.9198 6.16535 62.4018 5.67861 62.4018 5.02962Z" fill="white"/>
<path d="M66.2002 5.02962C66.2002 5.92198 66.9771 6.57096 67.8404 6.57096C68.7899 6.57096 69.4805 5.84086 69.4805 5.02962C69.4805 4.13727 68.7036 3.48828 67.8404 3.48828C66.9771 3.48828 66.2002 4.13727 66.2002 5.02962ZM66.6318 5.02962C66.6318 4.38064 67.1498 3.8939 67.8404 3.8939C68.5309 3.8939 69.0489 4.38064 69.0489 5.02962C69.0489 5.67861 68.5309 6.16535 67.8404 6.16535C67.2361 6.16535 66.6318 5.67861 66.6318 5.02962Z" fill="white"/>
<path d="M74.6602 5.02962C74.6602 5.92198 75.4371 6.57096 76.3003 6.57096C77.2499 6.57096 77.9405 5.84086 77.9405 5.02962C77.9405 4.13727 77.1636 3.48828 76.3003 3.48828C75.4371 3.48828 74.6602 4.13727 74.6602 5.02962ZM75.0918 5.02962C75.0918 4.38064 75.6097 3.8939 76.3003 3.8939C76.9909 3.8939 77.5089 4.38064 77.5089 5.02962C77.5089 5.67861 76.9909 6.16535 76.3003 6.16535C75.696 6.16535 75.0918 5.67861 75.0918 5.02962Z" fill="white"/>
<path d="M78.9761 5.02962C78.9761 5.92198 79.753 6.57096 80.6162 6.57096C81.5658 6.57096 82.2564 5.84086 82.2564 5.02962C82.2564 4.13727 81.4795 3.48828 80.6162 3.48828C79.6667 3.48828 78.9761 4.13727 78.9761 5.02962ZM79.3214 5.02962C79.3214 4.38064 79.8393 3.8939 80.5299 3.8939C81.2205 3.8939 81.7384 4.38064 81.7384 5.02962C81.7384 5.67861 81.2205 6.16535 80.5299 6.16535C79.9256 6.16535 79.3214 5.67861 79.3214 5.02962Z" fill="white"/>
<path d="M83.2061 5.02962C83.2061 5.92198 83.983 6.57096 84.8462 6.57096C85.7095 6.57096 86.4864 5.84086 86.4864 5.02962C86.4864 4.13727 85.7095 3.48828 84.8462 3.48828C83.8966 3.48828 83.2061 4.13727 83.2061 5.02962ZM83.6377 5.02962C83.6377 4.38064 84.1556 3.8939 84.8462 3.8939C85.5368 3.8939 86.0547 4.38064 86.0547 5.02962C86.0547 5.67861 85.5368 6.16535 84.8462 6.16535C84.1556 6.16535 83.6377 5.67861 83.6377 5.02962Z" fill="white"/>
<path d="M57.395 11.9251C57.395 12.8175 58.1719 13.4665 59.0352 13.4665C59.9847 13.4665 60.6753 12.7364 60.6753 11.9251C60.6753 11.0328 59.8984 10.3838 59.0352 10.3838C58.0856 10.3838 57.395 11.0328 57.395 11.9251ZM57.8266 11.9251C57.8266 11.2761 58.3446 10.7894 59.0352 10.7894C59.7258 10.7894 60.2437 11.2761 60.2437 11.9251C60.2437 12.5741 59.7258 13.0609 59.0352 13.0609C58.3446 13.0609 57.8266 12.5741 57.8266 11.9251Z" fill="white"/>
<path d="M61.625 11.9251C61.625 12.8175 62.4019 13.4665 63.2652 13.4665C64.2147 13.4665 64.9053 12.7364 64.9053 11.9251C64.9053 11.0328 64.1284 10.3838 63.2652 10.3838C62.3156 10.3838 61.625 11.0328 61.625 11.9251ZM62.0566 11.9251C62.0566 11.2761 62.5746 10.7894 63.2652 10.7894C63.9558 10.7894 64.4737 11.2761 64.4737 11.9251C64.4737 12.5741 63.9558 13.0609 63.2652 13.0609C62.5746 13.0609 62.0566 12.5741 62.0566 11.9251Z" fill="white"/>
<path d="M65.855 11.9251C65.855 12.8175 66.6319 13.4665 67.4951 13.4665C68.4447 13.4665 69.1353 12.7364 69.1353 11.9251C69.1353 11.0328 68.3584 10.3838 67.4951 10.3838C66.6319 10.3838 65.855 11.0328 65.855 11.9251ZM66.2866 11.9251C66.2866 11.2761 66.8045 10.7894 67.4951 10.7894C68.1857 10.7894 68.7037 11.2761 68.7037 11.9251C68.7037 12.5741 68.1857 13.0609 67.4951 13.0609C66.8045 13.0609 66.2866 12.5741 66.2866 11.9251Z" fill="white"/>
<path d="M74.3149 11.9251C74.3149 12.8174 75.0919 13.4664 75.9551 13.4664C76.9047 13.4664 77.5953 12.7363 77.5953 11.9251C77.5953 11.5195 77.4226 11.1138 77.0773 10.7894C76.732 10.4649 76.3867 10.3026 75.8688 10.3026C75.0919 10.3837 74.3149 11.0327 74.3149 11.9251ZM74.7466 11.9251C74.7466 11.2761 75.2645 10.7894 75.9551 10.7894C76.3004 10.7894 76.5594 10.8705 76.8183 11.1138C77.0773 11.3572 77.1636 11.6006 77.1636 11.9251C77.1636 12.5741 76.6457 13.0608 75.9551 13.0608C75.2645 13.0608 74.7466 12.5741 74.7466 11.9251Z" fill="white"/>
<path d="M78.5444 11.9251C78.5444 12.8175 79.3214 13.4665 80.1846 13.4665C81.1342 13.4665 81.8248 12.7364 81.8248 11.9251C81.8248 11.0328 81.0478 10.3838 80.1846 10.3838C79.3214 10.3838 78.5444 11.0328 78.5444 11.9251ZM78.9761 11.9251C78.9761 11.2761 79.494 10.7894 80.1846 10.7894C80.8752 10.7894 81.3931 11.2761 81.3931 11.9251C81.3931 12.5741 80.8752 13.0609 80.1846 13.0609C79.5803 13.0609 78.9761 12.5741 78.9761 11.9251Z" fill="white"/>
<path d="M82.7744 11.9251C82.7744 12.8175 83.5513 13.4665 84.4146 13.4665C85.3641 13.4665 86.0547 12.7364 86.0547 11.9251C86.0547 11.0328 85.2778 10.3838 84.4146 10.3838C83.5513 10.3838 82.7744 11.0328 82.7744 11.9251ZM83.206 11.9251C83.206 11.2761 83.724 10.7894 84.4146 10.7894C85.1052 10.7894 85.6231 11.2761 85.6231 11.9251C85.6231 12.5741 85.1052 13.0609 84.4146 13.0609C83.8103 13.0609 83.206 12.5741 83.206 11.9251Z" fill="white"/>
<path d="M87.5223 10.7894C87.177 11.1139 87.0044 11.4384 87.0044 11.9252C87.0044 12.3308 87.177 12.7364 87.5223 13.0609C87.8676 13.3854 88.2129 13.5476 88.7309 13.5476C89.6804 13.5476 90.371 12.8175 90.371 12.0063C90.371 11.1139 89.5941 10.465 88.7309 10.465C88.2129 10.3838 87.8676 10.5461 87.5223 10.7894ZM87.7813 12.7364C87.5223 12.493 87.436 12.2497 87.436 11.9252C87.436 11.6007 87.5223 11.3573 87.7813 11.1139C88.0403 10.8706 88.2993 10.7894 88.6445 10.7894C89.3351 10.7894 89.8531 11.2762 89.8531 11.9252C89.8531 12.5742 89.3351 13.0609 88.6445 13.0609C88.3856 13.0609 88.0403 12.9798 87.7813 12.7364Z" fill="white"/>
<path d="M9.57161 34.3151C7.93146 34.3151 6.20497 35.1263 6.20497 36.911C6.20497 39.1014 8.27675 39.3447 10.0896 39.6692C13.2836 40.4805 18.0314 41.2917 18.0314 45.3479C18.0314 50.2964 13.4562 52 8.96734 52C4.13319 52 0.680228 50.2153 0.852876 45.1856H5.42806C5.25541 47.3759 6.63659 48.9173 8.96734 48.9173C10.7802 48.9173 13.1972 48.4305 13.1972 46.2402C13.1972 43.8876 10.1759 43.7254 8.36308 43.3198C5.42805 42.5897 1.37082 41.3728 1.37082 37.8034C1.37082 33.2605 5.77335 31.2324 10.1759 31.2324C14.3194 31.2324 17.5134 33.3416 17.5134 37.3167H13.1109C12.9383 35.2886 11.7297 34.3151 9.57161 34.3151Z" fill="white"/>
<path d="M28.0447 52C23.2968 52 20.3618 48.9984 20.3618 44.6177C20.3618 40.2371 23.2105 37.3167 28.0447 37.3167C32.7925 37.3167 35.7275 40.3182 35.7275 44.6177C35.7275 48.9984 32.8788 52 28.0447 52ZM28.0447 49.1606C30.7207 49.1606 31.1523 46.8081 31.1523 44.6177C31.1523 42.4274 30.7207 40.0748 28.0447 40.0748C25.3686 40.0748 24.937 42.4274 24.937 44.6177C24.937 46.8081 25.3686 49.1606 28.0447 49.1606Z" fill="white"/>
<path d="M42.6334 37.6412H45.3094V40.4805H42.6334V51.5944H38.2309V40.4805H36.0728V37.7223H38.2309C38.1445 33.8284 38.4898 31.2324 43.2377 31.2324C44.0146 31.2324 44.8778 31.3135 45.6547 31.3947V33.9906C42.5471 33.6661 42.4607 34.9641 42.6334 37.6412Z" fill="white"/>
<path d="M49.3672 34.9641L53.7697 33.5039V37.7223H57.05V40.4805H53.7697V46.8892C53.7697 48.674 54.0287 49.2418 55.5825 49.2418C56.0141 49.2418 56.5321 49.1607 56.9637 49.1607V51.5944C56.4457 51.8378 54.115 52 53.5107 52C50.0577 52 49.3672 50.2964 49.3672 47.2949V40.4805H46.4321V37.7223H49.3672V34.9641Z" fill="white"/>
<path d="M61.2799 34.9641L65.6824 33.5039V37.7223H69.049V40.4805H65.7687V46.8892C65.7687 48.674 66.0277 49.2418 67.5815 49.2418C68.0131 49.2418 68.5311 49.1607 68.9627 49.1607V51.5944C68.4448 51.8378 66.114 52 65.5097 52C62.0568 52 61.3662 50.2964 61.3662 47.2949V40.4805H58.4312V37.7223H61.2799V34.9641Z" fill="white"/>
<path d="M74.4009 45.7535C74.4009 47.5382 74.6598 49.2418 76.9043 49.2418C78.4581 49.2418 79.235 48.755 79.5803 47.4571H83.5512C83.2059 50.8642 80.3572 52 76.9043 52C71.8111 52 69.8257 49.3229 69.8257 44.6989C69.8257 40.5616 72.4154 37.3167 76.9043 37.3167C79.6666 37.3167 81.9974 38.209 83.2059 40.6427C83.6375 41.4539 83.8102 42.2652 83.8965 43.1575C83.9828 44.0499 83.9828 44.8611 83.9828 45.8346L74.4009 45.7535ZM79.494 42.9953C79.494 41.4539 79.0624 40.0748 76.9043 40.0748C74.8325 40.0748 74.4009 41.4539 74.4009 42.9953H79.494Z" fill="white"/>
<path d="M90.3707 43.3198L94.6869 37.56H99.5211L94.5142 43.6442L99.8663 51.5943H94.7732L90.3707 43.9687L90.2844 44.0499V51.5943H85.8818V31.5569H90.2844V43.3198H90.3707Z" fill="white"/>
</svg>
